<svg xmlns="http://www.w3.org/2000/svg" class="bg-fixed fixed top-0 z-[-2] h-screen w-screen" viewBox="0 0 1440 762" preserveAspectRatio="xMidYMid" style="shape-rendering: auto; display: block; background: rgb(26, 27, 32);" width="1440" height="762"><g data-idx="1" style="fill: rgb(0, 0, 0); stroke: none; transform: none; opacity: 1;"></g>
            <path stroke-width="2" stroke-opacity="0" stroke="rgb(98, 82, 197)" fill="none" d="M 0 423.035 C 240 423.035 480 536.965 720 536.965 C 960 536.965 1200 423.035 1440 423.035 C 1680 423.035 1920 536.965 2160 536.965 C 2400 536.965 2640 423.035 2880 423.035" data-idx="2" transform="matrix(1,0,0,1,-10.800000190734863,0)" style="opacity: 1;"></path>  
            <path stroke-width="2" stroke-opacity="0" stroke="rgb(98, 82, 197)" fill="none" d="M 0 423.101 C 240 423.101 480 536.899 720 536.899 C 960 536.899 1200 423.101 1440 423.101 C 1680 423.101 1920 536.899 2160 536.899 C 2400 536.899 2640 423.101 2880 423.101" data-idx="6" transform="matrix(1,0,0,1,-18.360000610351562,0)" style="opacity: 1;"></path>
            <path stroke-width="2" stroke-opacity="0" stroke="rgb(98, 83, 197)" fill="none" d="M 0 423.209 C 240 423.209 480 536.791 720 536.791 C 960 536.791 1200 423.209 1440 423.209 C 1680 423.209 1920 536.791 2160 536.791 C 2400 536.791 2640 423.209 2880 423.209" data-idx="10" transform="matrix(1,0,0,1,-26.280000686645508,0)" style="opacity: 1;"></path>
            <path stroke-width="2" stroke-opacity="0" stroke="rgb(97, 83, 197)" fill="none" d="M 0 423.35 C 240 423.35 480 536.65 720 536.65 C 960 536.65 1200 423.35 1440 423.35 C 1680 423.35 1920 536.65 2160 536.65 C 2400 536.65 2640 423.35 2880 423.35" data-idx="14" transform="matrix(1,0,0,1,-33.84000015258789,0)" style="opacity: 1;"></path>
            <path stroke-width="2" stroke-opacity="0" stroke="rgb(97, 84, 197)" fill="none" d="M 0 423.53 C 240 423.53 480 536.471 720 536.471 C 960 536.471 1200 423.53 1440 423.53 C 1680 423.53 1920 536.471 2160 536.471 C 2400 536.471 2640 423.53 2880 423.53" data-idx="18" transform="matrix(1,0,0,1,-41.400001525878906,0)" style="opacity: 1;"></path>
            <path stroke-width="2" stroke-opacity="0" stroke="rgb(96, 84, 198)" fill="none" d="M 0 423.759 C 240 423.759 480 536.241 720 536.241 C 960 536.241 1200 423.759 1440 423.759 C 1680 423.759 1920 536.241 2160 536.241 C 2400 536.241 2640 423.759 2880 423.759" data-idx="22" transform="matrix(1,0,0,1,-49.31999969482422,0)" style="opacity: 1;"></path>
            <path stroke-width="2" stroke-opacity="0" stroke="rgb(96, 85, 198)" fill="none" d="M 0 424.02 C 240 424.02 480 535.98 720 535.98 C 960 535.98 1200 424.02 1440 424.02 C 1680 424.02 1920 535.98 2160 535.98 C 2400 535.98 2640 424.02 2880 424.02" data-idx="26" transform="matrix(1,0,0,1,-56.880001068115234,0)" style="opacity: 1;"></path>
            <path stroke-width="2" stroke-opacity="0" stroke="rgb(95, 86, 198)" fill="none" d="M 0 424.322 C 240 424.322 480 535.678 720 535.678 C 960 535.678 1200 424.322 1440 424.322 C 1680 424.322 1920 535.678 2160 535.678 C 2400 535.678 2640 424.322 2880 424.322" data-idx="30" transform="matrix(1,0,0,1,-64.44000244140625,0)" style="opacity: 1;"></path>
            <path stroke-width="2" stroke-opacity="0" stroke="rgb(94, 87, 199)" fill="none" d="M 0 424.684 C 240 424.684 480 535.316 720 535.316 C 960 535.316 1200 424.684 1440 424.684 C 1680 424.684 1920 535.316 2160 535.316 C 2400 535.316 2640 424.684 2880 424.684" data-idx="34" transform="matrix(1,0,0,1,-72.36000061035156,0)" style="opacity: 1;"></path>
            <path stroke-width="2" stroke-opacity="0" stroke="rgb(93, 88, 199)" fill="none" d="M 0 425.076 C 240 425.076 480 534.925 720 534.925 C 960 534.925 1200 425.076 1440 425.076 C 1680 425.076 1920 534.925 2160 534.925 C 2400 534.925 2640 425.076 2880 425.076" data-idx="38" transform="matrix(1,0,0,1,-79.91999816894531,0)" style="opacity: 1;"></path>
            <path stroke-width="2" stroke-opacity="0" stroke="rgb(92, 90, 199)" fill="none" d="M 0 425.512 C 240 425.512 480 534.488 720 534.488 C 960 534.488 1200 425.512 1440 425.512 C 1680 425.512 1920 534.488 2160 534.488 C 2400 534.488 2640 425.512 2880 425.512" data-idx="42" transform="matrix(1,0,0,1,-87.4800033569336,0)" style="opacity: 1;"></path>
            <path stroke-width="2" stroke-opacity="0" stroke="rgb(91, 91, 200)" fill="none" d="M 0 426.02 C 240 426.02 480 533.98 720 533.98 C 960 533.98 1200 426.02 1440 426.02 C 1680 426.02 1920 533.98 2160 533.98 C 2400 533.98 2640 426.02 2880 426.02" data-idx="46" transform="matrix(1,0,0,1,-95.4000015258789,0)" style="opacity: 1;"></path>
            <path stroke-width="2" stroke-opacity="0" stroke="rgb(90, 93, 201)" fill="none" d="M 0 426.553 C 240 426.553 480 533.447 720 533.447 C 960 533.447 1200 426.553 1440 426.553 C 1680 426.553 1920 533.447 2160 533.447 C 2400 533.447 2640 426.553 2880 426.553" data-idx="50" transform="matrix(1,0,0,1,-102.95999908447266,0)" style="opacity: 1;"></path>
            <path stroke-width="2" stroke-opacity="0" stroke="rgb(89, 95, 201)" fill="none" d="M 0 427.136 C 240 427.136 480 532.864 720 532.864 C 960 532.864 1200 427.136 1440 427.136 C 1680 427.136 1920 532.864 2160 532.864 C 2400 532.864 2640 427.136 2880 427.136" data-idx="54" transform="matrix(1,0,0,1,-110.5199966430664,0)" style="opacity: 1;"></path>
            <path stroke-width="2" stroke-opacity="0" stroke="rgb(87, 97, 202)" fill="none" d="M 0 427.802 C 240 427.802 480 532.198 720 532.198 C 960 532.198 1200 427.802 1440 427.802 C 1680 427.802 1920 532.198 2160 532.198 C 2400 532.198 2640 427.802 2880 427.802" data-idx="58" transform="matrix(1,0,0,1,-118.44000244140625,0)" style="opacity: 1;"></path>
            <path stroke-width="2" stroke-opacity="0" stroke="rgb(85, 100, 203)" fill="none" d="M 0 428.491 C 240 428.491 480 531.509 720 531.509 C 960 531.509 1200 428.491 1440 428.491 C 1680 428.491 1920 531.509 2160 531.509 C 2400 531.509 2640 428.491 2880 428.491" data-idx="62" transform="matrix(1,0,0,1,-126,0)" style="opacity: 1;"></path>
            <path stroke-width="2" stroke-opacity="0" stroke="rgb(83, 102, 204)" fill="none" d="M 0 429.235 C 240 429.235 480 530.765 720 530.765 C 960 530.765 1200 429.235 1440 429.235 C 1680 429.235 1920 530.765 2160 530.765 C 2400 530.765 2640 429.235 2880 429.235" data-idx="66" transform="matrix(1,0,0,1,-133.55999755859375,0)" style="opacity: 1;"></path>
            <path stroke-width="2" stroke-opacity="0" stroke="rgb(81, 105, 204)" fill="none" d="M 0 430.073 C 240 430.073 480 529.927 720 529.927 C 960 529.927 1200 430.073 1440 430.073 C 1680 430.073 1920 529.927 2160 529.927 C 2400 529.927 2640 430.073 2880 430.073" data-idx="70" transform="matrix(1,0,0,1,-141.47999572753906,0)" style="opacity: 1;"></path>
            <path stroke-width="2" stroke-opacity="0" stroke="rgb(79, 108, 205)" fill="none" d="M 0 430.931 C 240 430.931 480 529.069 720 529.069 C 960 529.069 1200 430.931 1440 430.931 C 1680 430.931 1920 529.069 2160 529.069 C 2400 529.069 2640 430.931 2880 430.931" data-idx="74" transform="matrix(1,0,0,1,-149.0399932861328,0)" style="opacity: 1;"></path>
            <path stroke-width="2" stroke-opacity="0" stroke="rgb(77, 111, 206)" fill="none" d="M 0 431.848 C 240 431.848 480 528.152 720 528.152 C 960 528.152 1200 431.848 1440 431.848 C 1680 431.848 1920 528.152 2160 528.152 C 2400 528.152 2640 431.848 2880 431.848" data-idx="78" transform="matrix(1,0,0,1,-156.60000610351562,0)" style="opacity: 1;"></path>
            <path stroke-width="2" stroke-opacity="0" stroke="rgb(75, 114, 207)" fill="none" d="M 0 432.873 C 240 432.873 480 527.127 720 527.127 C 960 527.127 1200 432.873 1440 432.873 C 1680 432.873 1920 527.127 2160 527.127 C 2400 527.127 2640 432.873 2880 432.873" data-idx="82" transform="matrix(1,0,0,1,-164.52000427246094,0)" style="opacity: 1;"></path>
            <path stroke-width="2" stroke-opacity="0" stroke="rgb(72, 117, 208)" fill="none" d="M 0 433.914 C 240 433.914 480 526.086 720 526.086 C 960 526.086 1200 433.914 1440 433.914 C 1680 433.914 1920 526.086 2160 526.086 C 2400 526.086 2640 433.914 2880 433.914" data-idx="86" transform="matrix(1,0,0,1,-172.0800018310547,0)" style="opacity: 1;"></path>
            <path stroke-width="2" stroke-opacity="0" stroke="rgb(70, 120, 209)" fill="none" d="M 0 435.018 C 240 435.018 480 524.982 720 524.982 C 960 524.982 1200 435.018 1440 435.018 C 1680 435.018 1920 524.982 2160 524.982 C 2400 524.982 2640 435.018 2880 435.018" data-idx="90" transform="matrix(1,0,0,1,-179.63999938964844,0)" style="opacity: 1;"></path>
            <path stroke-width="2" stroke-opacity="0" stroke="rgb(68, 124, 211)" fill="none" d="M 0 436.243 C 240 436.243 480 523.757 720 523.757 C 960 523.757 1200 436.243 1440 436.243 C 1680 436.243 1920 523.757 2160 523.757 C 2400 523.757 2640 436.243 2880 436.243" data-idx="94" transform="matrix(1,0,0,1,-187.55999755859375,0)" style="opacity: 1;"></path>
            <path stroke-width="2" stroke-opacity="0" stroke="rgb(65, 127, 212)" fill="none" d="M 0 437.479 C 240 437.479 480 522.521 720 522.521 C 960 522.521 1200 437.479 1440 437.479 C 1680 437.479 1920 522.521 2160 522.521 C 2400 522.521 2640 437.479 2880 437.479" data-idx="98" transform="matrix(1,0,0,1,-195.1199951171875,0)" style="opacity: 1;"></path>
            <path stroke-width="2" stroke-opacity="0" stroke="rgb(63, 130, 213)" fill="none" d="M 0 438.782 C 240 438.782 480 521.218 720 521.218 C 960 521.218 1200 438.782 1440 438.782 C 1680 438.782 1920 521.218 2160 521.218 C 2400 521.218 2640 438.782 2880 438.782" data-idx="102" transform="matrix(1,0,0,1,-202.67999267578125,0)" style="opacity: 1;"></path>
            <path stroke-width="2" stroke-opacity="0" stroke="rgb(61, 133, 214)" fill="none" d="M 0 440.22 C 240 440.22 480 519.78 720 519.78 C 960 519.78 1200 440.22 1440 440.22 C 1680 440.22 1920 519.78 2160 519.78 C 2400 519.78 2640 440.22 2880 440.22" data-idx="106" transform="matrix(1,0,0,1,-210.60000610351562,0)" style="opacity: 1;"></path>
            <path stroke-width="2" stroke-opacity="0" stroke="rgb(59, 136, 215)" fill="none" d="M 0 441.662 C 240 441.662 480 518.338 720 518.338 C 960 518.338 1200 441.662 1440 441.662 C 1680 441.662 1920 518.338 2160 518.338 C 2400 518.338 2640 441.662 2880 441.662" data-idx="110" transform="matrix(1,0,0,1,-218.16000366210938,0)" style="opacity: 1;"></path>
            <path stroke-width="2" stroke-opacity="0" stroke="rgb(57, 139, 215)" fill="none" d="M 0 443.173 C 240 443.173 480 516.827 720 516.827 C 960 516.827 1200 443.173 1440 443.173 C 1680 443.173 1920 516.827 2160 516.827 C 2400 516.827 2640 443.173 2880 443.173" data-idx="114" transform="matrix(1,0,0,1,-225.72000122070312,0)" style="opacity: 1;"></path>
            <path stroke-width="2" stroke-opacity="0" stroke="rgb(55, 141, 216)" fill="none" d="M 0 444.831 C 240 444.831 480 515.169 720 515.169 C 960 515.169 1200 444.831 1440 444.831 C 1680 444.831 1920 515.169 2160 515.169 C 2400 515.169 2640 444.831 2880 444.831" data-idx="118" transform="matrix(1,0,0,1,-233.63999938964844,0)" style="opacity: 1;"></path>
            <path stroke-width="2" stroke-opacity="0" stroke="rgb(53, 144, 217)" fill="none" d="M 0 446.484 C 240 446.484 480 513.516 720 513.516 C 960 513.516 1200 446.484 1440 446.484 C 1680 446.484 1920 513.516 2160 513.516 C 2400 513.516 2640 446.484 2880 446.484" data-idx="122" transform="matrix(1,0,0,1,-241.1999969482422,0)" style="opacity: 1;"></path>
            <path stroke-width="2" stroke-opacity="0" stroke="rgb(52, 146, 218)" fill="none" d="M 0 448.206 C 240 448.206 480 511.794 720 511.794 C 960 511.794 1200 448.206 1440 448.206 C 1680 448.206 1920 511.794 2160 511.794 C 2400 511.794 2640 448.206 2880 448.206" data-idx="126" transform="matrix(1,0,0,1,-248.75999450683594,0)" style="opacity: 1;"></path>
            <path stroke-width="2" stroke-opacity="0" stroke="rgb(50, 148, 218)" fill="none" d="M 0 450.083 C 240 450.083 480 509.917 720 509.917 C 960 509.917 1200 450.083 1440 450.083 C 1680 450.083 1920 509.917 2160 509.917 C 2400 509.917 2640 450.083 2880 450.083" data-idx="130" transform="matrix(1,0,0,1,-256.67999267578125,0)" style="opacity: 1;"></path>
            <path stroke-width="2" stroke-opacity="0" stroke="rgb(49, 150, 219)" fill="none" d="M 0 451.944 C 240 451.944 480 508.056 720 508.056 C 960 508.056 1200 451.944 1440 451.944 C 1680 451.944 1920 508.056 2160 508.056 C 2400 508.056 2640 451.944 2880 451.944" data-idx="134" transform="matrix(1,0,0,1,-264.239990234375,0)" style="opacity: 1;"></path>
            <path stroke-width="2" stroke-opacity="0" stroke="rgb(48, 151, 219)" fill="none" d="M 0 453.871 C 240 453.871 480 506.129 720 506.129 C 960 506.129 1200 453.871 1440 453.871 C 1680 453.871 1920 506.129 2160 506.129 C 2400 506.129 2640 453.871 2880 453.871" data-idx="138" transform="matrix(1,0,0,1,-271.79998779296875,0)" style="opacity: 1;"></path>
            <path stroke-width="2" stroke-opacity="0" stroke="rgb(47, 153, 220)" fill="none" d="M 0 455.958 C 240 455.958 480 504.042 720 504.042 C 960 504.042 1200 455.958 1440 455.958 C 1680 455.958 1920 504.042 2160 504.042 C 2400 504.042 2640 455.958 2880 455.958" data-idx="142" transform="matrix(1,0,0,1,-279.7200012207031,0)" style="opacity: 1;"></path>
            <path stroke-width="2" stroke-opacity="0" stroke="rgb(46, 154, 220)" fill="none" d="M 0 458.012 C 240 458.012 480 501.988 720 501.988 C 960 501.988 1200 458.012 1440 458.012 C 1680 458.012 1920 501.988 2160 501.988 C 2400 501.988 2640 458.012 2880 458.012" data-idx="146" transform="matrix(1,0,0,1,-287.2799987792969,0)" style="opacity: 1;"></path>
            <path stroke-width="2" stroke-opacity="0" stroke="rgb(45, 155, 221)" fill="none" d="M 0 460.124 C 240 460.124 480 499.876 720 499.876 C 960 499.876 1200 460.124 1440 460.124 C 1680 460.124 1920 499.876 2160 499.876 C 2400 499.876 2640 460.124 2880 460.124" data-idx="150" transform="matrix(1,0,0,1,-294.8399963378906,0)" style="opacity: 1;"></path>
            <path stroke-width="2" stroke-opacity="0" stroke="rgb(44, 156, 221)" fill="none" d="M 0 462.394 C 240 462.394 480 497.606 720 497.606 C 960 497.606 1200 462.394 1440 462.394 C 1680 462.394 1920 497.606 2160 497.606 C 2400 497.606 2640 462.394 2880 462.394" data-idx="154" transform="matrix(1,0,0,1,-302.760009765625,0)" style="opacity: 1;"></path>
            <path stroke-width="2" stroke-opacity="0" stroke="rgb(44, 157, 221)" fill="none" d="M 0 464.612 C 240 464.612 480 495.388 720 495.388 C 960 495.388 1200 464.612 1440 464.612 C 1680 464.612 1920 495.388 2160 495.388 C 2400 495.388 2640 464.612 2880 464.612" data-idx="158" transform="matrix(1,0,0,1,-310.32000732421875,0)" style="opacity: 1;"></path>
            <path stroke-width="2" stroke-opacity="0" stroke="rgb(43, 157, 221)" fill="none" d="M 0 466.873 C 240 466.873 480 493.127 720 493.127 C 960 493.127 1200 466.873 1440 466.873 C 1680 466.873 1920 493.127 2160 493.127 C 2400 493.127 2640 466.873 2880 466.873" data-idx="162" transform="matrix(1,0,0,1,-317.8800048828125,0)" style="opacity: 1;"></path>
            <path stroke-width="2" stroke-opacity="0" stroke="rgb(43, 158, 222)" fill="none" d="M 0 469.284 C 240 469.284 480 490.716 720 490.716 C 960 490.716 1200 469.284 1440 469.284 C 1680 469.284 1920 490.716 2160 490.716 C 2400 490.716 2640 469.284 2880 469.284" data-idx="166" transform="matrix(1,0,0,1,-325.79998779296875,0)" style="opacity: 1;"></path>
            <path stroke-width="2" stroke-opacity="0" stroke="rgb(42, 158, 222)" fill="none" d="M 0 471.618 C 240 471.618 480 488.382 720 488.382 C 960 488.382 1200 471.618 1440 471.618 C 1680 471.618 1920 488.382 2160 488.382 C 2400 488.382 2640 471.618 2880 471.618" data-idx="170" transform="matrix(1,0,0,1,-333.3599853515625,0)" style="opacity: 1;"></path>
            <path stroke-width="2" stroke-opacity="0" stroke="rgb(42, 159, 222)" fill="none" d="M 0 473.978 C 240 473.978 480 486.022 720 486.022 C 960 486.022 1200 473.978 1440 473.978 C 1680 473.978 1920 486.022 2160 486.022 C 2400 486.022 2640 473.978 2880 473.978" data-idx="174" transform="matrix(1,0,0,1,-340.9200134277344,0)" style="opacity: 1;"></path>
            <path stroke-width="2" stroke-opacity="0" stroke="rgb(42, 159, 222)" fill="none" d="M 0 476.47 C 240 476.47 480 483.53 720 483.53 C 960 483.53 1200 476.47 1440 476.47 C 1680 476.47 1920 483.53 2160 483.53 C 2400 483.53 2640 476.47 2880 476.47" data-idx="178" transform="matrix(1,0,0,1,-348.8399963378906,0)" style="opacity: 1;"></path>
            <path stroke-width="2" stroke-opacity="0" stroke="rgb(42, 159, 222)" fill="none" d="M 0 478.86 C 240 478.86 480 481.14 720 481.14 C 960 481.14 1200 478.86 1440 478.86 C 1680 478.86 1920 481.14 2160 481.14 C 2400 481.14 2640 478.86 2880 478.86" data-idx="182" transform="matrix(1,0,0,1,-356.3999938964844,0)" style="opacity: 1;"></path>
            <path stroke-width="2" stroke-opacity="0.022727272727272728" stroke="rgb(42, 159, 222)" fill="none" d="M 0 481.254 C 240 481.254 480 478.746 720 478.746 C 960 478.746 1200 481.254 1440 481.254 C 1680 481.254 1920 478.746 2160 478.746 C 2400 478.746 2640 481.254 2880 481.254" data-idx="186" transform="matrix(1,0,0,1,-363.9599914550781,0)" style="opacity: 1;"></path>
            <path stroke-width="2" stroke-opacity="0.045454545454545456" stroke="rgb(42, 159, 222)" fill="none" d="M 0 483.757 C 240 483.757 480 476.243 720 476.243 C 960 476.243 1200 483.757 1440 483.757 C 1680 483.757 1920 476.243 2160 476.243 C 2400 476.243 2640 483.757 2880 483.757" data-idx="190" transform="matrix(1,0,0,1,-371.8800048828125,0)" style="opacity: 1;"></path>
            <path stroke-width="2" stroke-opacity="0.06818181818181818" stroke="rgb(42, 159, 222)" fill="none" d="M 0 486.135 C 240 486.135 480 473.865 720 473.865 C 960 473.865 1200 486.135 1440 486.135 C 1680 486.135 1920 473.865 2160 473.865 C 2400 473.865 2640 486.135 2880 486.135" data-idx="194" transform="matrix(1,0,0,1,-379.44000244140625,0)" style="opacity: 1;"></path>
            <path stroke-width="2" stroke-opacity="0.09090909090909091" stroke="rgb(42, 160, 221)" fill="none" d="M 0 488.494 C 240 488.494 480 471.506 720 471.506 C 960 471.506 1200 488.494 1440 488.494 C 1680 488.494 1920 471.506 2160 471.506 C 2400 471.506 2640 488.494 2880 488.494" data-idx="198" transform="matrix(1,0,0,1,-387,0)" style="opacity: 1;"></path>
            <path stroke-width="2" stroke-opacity="0.11363636363636363" stroke="rgb(42, 160, 221)" fill="none" d="M 0 490.937 C 240 490.937 480 469.063 720 469.063 C 960 469.063 1200 490.937 1440 490.937 C 1680 490.937 1920 469.063 2160 469.063 C 2400 469.063 2640 490.937 2880 490.937" data-idx="202" transform="matrix(1,0,0,1,-394.9200134277344,0)" style="opacity: 1;"></path>
            <path stroke-width="2" stroke-opacity="0.13636363636363635" stroke="rgb(42, 160, 221)" fill="none" d="M 0 493.235 C 240 493.235 480 466.765 720 466.765 C 960 466.765 1200 493.235 1440 493.235 C 1680 493.235 1920 466.765 2160 466.765 C 2400 466.765 2640 493.235 2880 493.235" data-idx="206" transform="matrix(1,0,0,1,-402.4800109863281,0)" style="opacity: 1;"></path>
            <path stroke-width="2" stroke-opacity="0.1590909090909091" stroke="rgb(42, 161, 220)" fill="none" d="M 0 495.495 C 240 495.495 480 464.505 720 464.505 C 960 464.505 1200 495.495 1440 495.495 C 1680 495.495 1920 464.505 2160 464.505 C 2400 464.505 2640 495.495 2880 495.495" data-idx="210" transform="matrix(1,0,0,1,-410.0400085449219,0)" style="opacity: 1;"></path>
            <path stroke-width="2" stroke-opacity="0.18181818181818182" stroke="rgb(42, 162, 219)" fill="none" d="M 0 497.815 C 240 497.815 480 462.185 720 462.185 C 960 462.185 1200 497.815 1440 497.815 C 1680 497.815 1920 462.185 2160 462.185 C 2400 462.185 2640 497.815 2880 497.815" data-idx="214" transform="matrix(1,0,0,1,-417.9599914550781,0)" style="opacity: 1;"></path>
            <path stroke-width="2" stroke-opacity="0.20454545454545456" stroke="rgb(42, 163, 218)" fill="none" d="M 0 499.978 C 240 499.978 480 460.022 720 460.022 C 960 460.022 1200 499.978 1440 499.978 C 1680 499.978 1920 460.022 2160 460.022 C 2400 460.022 2640 499.978 2880 499.978" data-idx="218" transform="matrix(1,0,0,1,-425.5199890136719,0)" style="opacity: 1;"></path>
            <path stroke-width="2" stroke-opacity="0.22727272727272727" stroke="rgb(41, 164, 217)" fill="none" d="M 0 502.087 C 240 502.087 480 457.913 720 457.913 C 960 457.913 1200 502.087 1440 502.087 C 1680 502.087 1920 457.913 2160 457.913 C 2400 457.913 2640 502.087 2880 502.087" data-idx="222" transform="matrix(1,0,0,1,-433.0799865722656,0)" style="opacity: 1;"></path>
            <path stroke-width="2" stroke-opacity="0.25" stroke="rgb(41, 165, 216)" fill="none" d="M 0 504.235 C 240 504.235 480 455.765 720 455.765 C 960 455.765 1200 504.235 1440 504.235 C 1680 504.235 1920 455.765 2160 455.765 C 2400 455.765 2640 504.235 2880 504.235" data-idx="226" transform="matrix(1,0,0,1,-441,0)" style="opacity: 1;"></path>
            <path stroke-width="2" stroke-opacity="0.2727272727272727" stroke="rgb(41, 166, 215)" fill="none" d="M 0 506.222 C 240 506.222 480 453.778 720 453.778 C 960 453.778 1200 506.222 1440 506.222 C 1680 506.222 1920 453.778 2160 453.778 C 2400 453.778 2640 506.222 2880 506.222" data-idx="230" transform="matrix(1,0,0,1,-448.55999755859375,0)" style="opacity: 1;"></path>
            <path stroke-width="2" stroke-opacity="0.29545454545454547" stroke="rgb(41, 167, 214)" fill="none" d="M 0 508.146 C 240 508.146 480 451.854 720 451.854 C 960 451.854 1200 508.146 1440 508.146 C 1680 508.146 1920 451.854 2160 451.854 C 2400 451.854 2640 508.146 2880 508.146" data-idx="234" transform="matrix(1,0,0,1,-456.1199951171875,0)" style="opacity: 1;"></path>
            <path stroke-width="2" stroke-opacity="0.3181818181818182" stroke="rgb(41, 169, 212)" fill="none" d="M 0 510.091 C 240 510.091 480 449.909 720 449.909 C 960 449.909 1200 510.091 1440 510.091 C 1680 510.091 1920 449.909 2160 449.909 C 2400 449.909 2640 510.091 2880 510.091" data-idx="238" transform="matrix(1,0,0,1,-464.0400085449219,0)" style="opacity: 1;"></path>
            <path stroke-width="2" stroke-opacity="0.3409090909090909" stroke="rgb(40, 171, 210)" fill="none" d="M 0 511.878 C 240 511.878 480 448.122 720 448.122 C 960 448.122 1200 511.878 1440 511.878 C 1680 511.878 1920 448.122 2160 448.122 C 2400 448.122 2640 511.878 2880 511.878" data-idx="242" transform="matrix(1,0,0,1,-471.6000061035156,0)" style="opacity: 1;"></path>
            <path stroke-width="2" stroke-opacity="0.36363636363636365" stroke="rgb(40, 173, 208)" fill="none" d="M 0 513.597 C 240 513.597 480 446.403 720 446.403 C 960 446.403 1200 513.597 1440 513.597 C 1680 513.597 1920 446.403 2160 446.403 C 2400 446.403 2640 513.597 2880 513.597" data-idx="246" transform="matrix(1,0,0,1,-479.1600036621094,0)" style="opacity: 1;"></path>
            <path stroke-width="2" stroke-opacity="0.38636363636363635" stroke="rgb(40, 175, 206)" fill="none" d="M 0 515.323 C 240 515.323 480 444.677 720 444.677 C 960 444.677 1200 515.323 1440 515.323 C 1680 515.323 1920 444.677 2160 444.677 C 2400 444.677 2640 515.323 2880 515.323" data-idx="250" transform="matrix(1,0,0,1,-487.0799865722656,0)" style="opacity: 1;"></path>
            <path stroke-width="2" stroke-opacity="0.4090909090909091" stroke="rgb(40, 177, 204)" fill="none" d="M 0 516.9 C 240 516.9 480 443.1 720 443.1 C 960 443.1 1200 516.9 1440 516.9 C 1680 516.9 1920 443.1 2160 443.1 C 2400 443.1 2640 516.9 2880 516.9" data-idx="254" transform="matrix(1,0,0,1,-494.6400146484375,0)" style="opacity: 1;"></path>
            <path stroke-width="2" stroke-opacity="0.4318181818181818" stroke="rgb(39, 180, 201)" fill="none" d="M 0 518.408 C 240 518.408 480 441.592 720 441.592 C 960 441.592 1200 518.408 1440 518.408 C 1680 518.408 1920 441.592 2160 441.592 C 2400 441.592 2640 518.408 2880 518.408" data-idx="258" transform="matrix(1,0,0,1,-502.20001220703125,0)" style="opacity: 1;"></path>
            <path stroke-width="2" stroke-opacity="0.45454545454545453" stroke="rgb(39, 182, 199)" fill="none" d="M 0 519.914 C 240 519.914 480 440.086 720 440.086 C 960 440.086 1200 519.914 1440 519.914 C 1680 519.914 1920 440.086 2160 440.086 C 2400 440.086 2640 519.914 2880 519.914" data-idx="262" transform="matrix(1,0,0,1,-510.1199951171875,0)" style="opacity: 1;"></path>
            <path stroke-width="2" stroke-opacity="0.4772727272727273" stroke="rgb(39, 185, 196)" fill="none" d="M 0 521.281 C 240 521.281 480 438.719 720 438.719 C 960 438.719 1200 521.281 1440 521.281 C 1680 521.281 1920 438.719 2160 438.719 C 2400 438.719 2640 521.281 2880 521.281" data-idx="266" transform="matrix(1,0,0,1,-517.6799926757812,0)" style="opacity: 1;"></path>
            <path stroke-width="2" stroke-opacity="0.5" stroke="rgb(38, 188, 193)" fill="none" d="M 0 522.581 C 240 522.581 480 437.419 720 437.419 C 960 437.419 1200 522.581 1440 522.581 C 1680 522.581 1920 437.419 2160 437.419 C 2400 437.419 2640 522.581 2880 522.581" data-idx="270" transform="matrix(1,0,0,1,-525.239990234375,0)" style="opacity: 1;"></path>
            <path stroke-width="2" stroke-opacity="0.5227272727272727" stroke="rgb(38, 191, 190)" fill="none" d="M 0 523.871 C 240 523.871 480 436.129 720 436.129 C 960 436.129 1200 523.871 1440 523.871 C 1680 523.871 1920 436.129 2160 436.129 C 2400 436.129 2640 523.871 2880 523.871" data-idx="274" transform="matrix(1,0,0,1,-533.1599731445312,0)" style="opacity: 1;"></path>
            <path stroke-width="2" stroke-opacity="0.5454545454545454" stroke="rgb(37, 194, 187)" fill="none" d="M 0 525.036 C 240 525.036 480 434.964 720 434.964 C 960 434.964 1200 525.036 1440 525.036 C 1680 525.036 1920 434.964 2160 434.964 C 2400 434.964 2640 525.036 2880 525.036" data-idx="278" transform="matrix(1,0,0,1,-540.719970703125,0)" style="opacity: 1;"></path>
            <path stroke-width="2" stroke-opacity="0.5681818181818182" stroke="rgb(37, 197, 184)" fill="none" d="M 0 526.137 C 240 526.137 480 433.863 720 433.863 C 960 433.863 1200 526.137 1440 526.137 C 1680 526.137 1920 433.863 2160 433.863 C 2400 433.863 2640 526.137 2880 526.137" data-idx="282" transform="matrix(1,0,0,1,-548.280029296875,0)" style="opacity: 1;"></path>
            <path stroke-width="2" stroke-opacity="0.5909090909090909" stroke="rgb(37, 200, 181)" fill="none" d="M 0 527.223 C 240 527.223 480 432.777 720 432.777 C 960 432.777 1200 527.223 1440 527.223 C 1680 527.223 1920 432.777 2160 432.777 C 2400 432.777 2640 527.223 2880 527.223" data-idx="286" transform="matrix(1,0,0,1,-556.2000122070312,0)" style="opacity: 1;"></path>
            <path stroke-width="2" stroke-opacity="0.6136363636363636" stroke="rgb(36, 202, 179)" fill="none" d="M 0 528.197 C 240 528.197 480 431.803 720 431.803 C 960 431.803 1200 528.197 1440 528.197 C 1680 528.197 1920 431.803 2160 431.803 C 2400 431.803 2640 528.197 2880 528.197" data-idx="290" transform="matrix(1,0,0,1,-563.760009765625,0)" style="opacity: 1;"></path>
            <path stroke-width="2" stroke-opacity="0.6363636363636364" stroke="rgb(36, 205, 176)" fill="none" d="M 0 529.111 C 240 529.111 480 430.889 720 430.889 C 960 430.889 1200 529.111 1440 529.111 C 1680 529.111 1920 430.889 2160 430.889 C 2400 430.889 2640 529.111 2880 529.111" data-idx="294" transform="matrix(1,0,0,1,-571.3200073242188,0)" style="opacity: 1;"></path>
            <path stroke-width="2" stroke-opacity="0.6590909090909091" stroke="rgb(36, 208, 173)" fill="none" d="M 0 530.006 C 240 530.006 480 429.994 720 429.994 C 960 429.994 1200 530.006 1440 530.006 C 1680 530.006 1920 429.994 2160 429.994 C 2400 429.994 2640 530.006 2880 530.006" data-idx="298" transform="matrix(1,0,0,1,-579.239990234375,0)" style="opacity: 1;"></path>
        </svg>
